<svg preserveAspectRatio="none" overflow="visible" style="display: block;" width="13" height="13.8333" viewBox="0 0 13 13.8333" fill="none" xmlns="http://www.w3.org/2000/svg">
<g id="Group">
<path id="Vector" d="M12.5 13.8333H0.5C0.226667 13.8333 0 13.6067 0 13.3333C0 13.06 0.226667 12.8333 0.5 12.8333H12.5C12.7733 12.8333 13 13.06 13 13.3333C13 13.6067 12.7733 13.8333 12.5 13.8333Z" fill="#B2B2BA"/>
<path id="Vector_2" d="M2.23333 4.25391H1.16667C0.8 4.25391 0.5 4.55391 0.5 4.92057V10.6673C0.5 11.0339 0.8 11.3339 1.16667 11.3339H2.23333C2.6 11.3339 2.9 11.0339 2.9 10.6673V4.92057C2.9 4.54724 2.6 4.25391 2.23333 4.25391Z" fill="#B2B2BA"/>
<path id="Vector_3" d="M7.03333 2.1263H5.96667C5.6 2.1263 5.3 2.4263 5.3 2.79297V10.6663C5.3 11.033 5.6 11.333 5.96667 11.333H7.03333C7.4 11.333 7.7 11.033 7.7 10.6663V2.79297C7.7 2.4263 7.4 2.1263 7.03333 2.1263Z" fill="#B2B2BA"/>
<path id="Vector_4" d="M11.8333 0H10.7666C10.3999 0 10.0999 0.3 10.0999 0.666667V10.6667C10.0999 11.0333 10.3999 11.3333 10.7666 11.3333H11.8333C12.1999 11.3333 12.4999 11.0333 12.4999 10.6667V0.666667C12.4999 0.3 12.1999 0 11.8333 0Z" fill="#B2B2BA"/>
</g>
</svg>
